<svg xmlns="http://www.w3.org/2000/svg" width="266" height="51" viewBox="0 0 266 51" fill="none"><rect width="266" height="51" rx="6" fill="#1B1B1B"></rect><rect width="102" height="51" rx="6" fill="#D50C0C"></rect><path d="M20.89 16.1H26.236V30.761H35.254V35H20.89V16.1ZM37.2345 16.1H42.5805V35H37.2345V16.1ZM65.3662 16.1L57.2662 35H52.0012L43.9282 16.1H49.7062L54.8362 28.412L60.0742 16.1H65.3662ZM81.5115 30.869V35H66.3375V16.1H81.1605V20.231H71.6295V23.417H80.0265V27.413H71.6295V30.869H81.5115Z" fill="white"></path><path d="M137.444 33L137.4 24.838L133.44 31.482H131.504L127.566 25.058V33H123.54V17.6H127.126L132.538 26.488L137.818 17.6H141.404L141.448 33H137.444ZM152.186 33.308C150.558 33.308 149.092 32.9633 147.786 32.274C146.496 31.5847 145.476 30.6313 144.728 29.414C143.995 28.1967 143.628 26.8253 143.628 25.3C143.628 23.7747 143.995 22.4033 144.728 21.186C145.476 19.9687 146.496 19.0153 147.786 18.326C149.092 17.6367 150.558 17.292 152.186 17.292C153.814 17.292 155.274 17.6367 156.564 18.326C157.87 19.0153 158.889 19.9687 159.622 21.186C160.37 22.4033 160.744 23.7747 160.744 25.3C160.744 26.8253 160.37 28.1967 159.622 29.414C158.889 30.6313 157.87 31.5847 156.564 32.274C155.274 32.9633 153.814 33.308 152.186 33.308ZM152.186 29.7C152.964 29.7 153.668 29.5167 154.298 29.15C154.929 28.7833 155.428 28.27 155.794 27.61C156.161 26.9353 156.344 26.1653 156.344 25.3C156.344 24.4347 156.161 23.672 155.794 23.012C155.428 22.3373 154.929 21.8167 154.298 21.45C153.668 21.0833 152.964 20.9 152.186 20.9C151.409 20.9 150.705 21.0833 150.074 21.45C149.444 21.8167 148.945 22.3373 148.578 23.012C148.212 23.672 148.028 24.4347 148.028 25.3C148.028 26.1653 148.212 26.9353 148.578 27.61C148.945 28.27 149.444 28.7833 150.074 29.15C150.705 29.5167 151.409 29.7 152.186 29.7ZM177.568 17.6V33H173.982L167.184 24.794V33H162.916V17.6H166.502L173.3 25.806V17.6H177.568ZM185.942 33.308C184.696 33.308 183.486 33.154 182.312 32.846C181.139 32.538 180.186 32.1273 179.452 31.614L180.882 28.402C181.572 28.8567 182.371 29.2233 183.28 29.502C184.19 29.7807 185.084 29.92 185.964 29.92C187.636 29.92 188.472 29.502 188.472 28.666C188.472 28.226 188.23 27.9033 187.746 27.698C187.277 27.478 186.514 27.2507 185.458 27.016C184.3 26.7667 183.332 26.5027 182.554 26.224C181.777 25.9307 181.11 25.4687 180.552 24.838C179.995 24.2073 179.716 23.3567 179.716 22.286C179.716 21.3473 179.973 20.504 180.486 19.756C181 18.9933 181.762 18.392 182.774 17.952C183.801 17.512 185.055 17.292 186.536 17.292C187.548 17.292 188.546 17.4093 189.528 17.644C190.511 17.864 191.376 18.194 192.124 18.634L190.782 21.868C189.316 21.076 187.893 20.68 186.514 20.68C185.649 20.68 185.018 20.812 184.622 21.076C184.226 21.3253 184.028 21.6553 184.028 22.066C184.028 22.4767 184.263 22.7847 184.732 22.99C185.202 23.1953 185.957 23.408 186.998 23.628C188.172 23.8773 189.14 24.1487 189.902 24.442C190.68 24.7207 191.347 25.1753 191.904 25.806C192.476 26.422 192.762 27.2653 192.762 28.336C192.762 29.26 192.506 30.096 191.992 30.844C191.479 31.592 190.709 32.1933 189.682 32.648C188.656 33.088 187.409 33.308 185.942 33.308ZM197.728 21.054H192.998V17.6H206.792V21.054H202.084V33H197.728V21.054ZM215.036 28.908H212.66V33H208.304V17.6H215.344C216.738 17.6 217.948 17.8347 218.974 18.304C220.001 18.7587 220.793 19.4187 221.35 20.284C221.908 21.1347 222.186 22.1393 222.186 23.298C222.186 24.4127 221.922 25.388 221.394 26.224C220.881 27.0453 220.14 27.6907 219.172 28.16L222.494 33H217.83L215.036 28.908ZM217.786 23.298C217.786 22.5793 217.559 22.022 217.104 21.626C216.65 21.23 215.975 21.032 215.08 21.032H212.66V25.542H215.08C215.975 25.542 216.65 25.3513 217.104 24.97C217.559 24.574 217.786 24.0167 217.786 23.298ZM234.798 30.008H228.286L227.076 33H222.632L229.43 17.6H233.72L240.54 33H236.008L234.798 30.008ZM233.522 26.796L231.542 21.868L229.562 26.796H233.522ZM240.961 17.6H245.933L245.097 27.39H241.775L240.961 17.6ZM243.447 33.198C242.713 33.198 242.112 32.978 241.643 32.538C241.173 32.0833 240.939 31.5333 240.939 30.888C240.939 30.228 241.173 29.6853 241.643 29.26C242.112 28.8347 242.713 28.622 243.447 28.622C244.18 28.622 244.774 28.8347 245.229 29.26C245.698 29.6853 245.933 30.228 245.933 30.888C245.933 31.5333 245.698 32.0833 245.229 32.538C244.759 32.978 244.165 33.198 243.447 33.198Z" fill="white"></path></svg>